{"title":"Akcent Ft. Sandra N. - Boracay [Music Video] 1080p [Sbyky]","uid":9336434,"size":50615022,"categoryP":"video","categoryS":"music_videos","magnet":"?xt=urn:btih:9cae879c99f6eb5010c12a259e263719c873e1d8&amp;dn=Akcent+Ft.+Sandra+N.+-+Boracay+%5BMusic+Video%5D+1080p+%5BSbyky%5D&amp;tr=udp%3A%2F%2Ftracker.openbittorrent.com%3A80&amp;tr=udp%3A%2F%2Fopen.demonii.com%3A1337&amp;tr=udp%3A%2F%2Ftracker.coppersurfer.tk%3A6969&amp;tr=udp%3A%2F%2Fexodus.desync.com%3A6969","seeders":0,"leechers":0,"uploader":"Sbyky","files":1,"time":1386863055,"description":"\n\nGeneral\nComplete name                            : Akcent Ft. Sandra N. - Boracay [Music Video] 1080p [Sbyky].mp4\nFormat                                   : MPEG-4\nFormat profile                           : Base Media\nCodec ID                                 : isom\nFile size                                : 48.3 MiB\nDuration                                 : 3mn 10s\nOverall bit rate mode                    : Variable\nOverall bit rate                         : 2 121 Kbps\nEncoded date                             : UTC 2013-12-03 02:59:25\nTagged date                              : UTC 2013-12-03 02:59:25\n\nVideo\nID                                       : 1\nFormat                                   : AVC\nFormat/Info                              : Advanced Video Codec\nFormat profile                           : &lt;a class=&quot;__cf_email__&quot; href=&quot;/cdn-cgi/l/email-protection&quot; data-cfemail=&quot;92dafbf5fad2dea6bca2&quot;&gt;[email&amp;#160;protected]&lt;/a&gt;&lt;script data-cfhash='f9e31' type=&quot;text/javascript&quot;&gt;\n/* &lt;![CDATA[ */!function(){try{var t=&quot;currentScript&quot;in document?document.currentScript:function(){for(var t=document.getElementsByTagName(&quot;script&quot;),e=t.length;e--;)if(t[e].getAttribute(&quot;data-cfhash&quot;))return t[e]}();if(t&amp;&amp;t.previousSibling){var e,r,n,i,c=t.previousSibling,a=c.getAttribute(&quot;data-cfemail&quot;);if(a){for(e=&quot;&quot;,r=parseInt(a.substr(0,2),16),n=2;a.length-n;n+=2)i=parseInt(a.substr(n,2),16)^r,e+=String.fromCharCode(i);e=document.createTextNode(e),c.parentNode.replaceChild(e,c)}t.parentNode.removeChild(t);}}catch(u){}}()/* ]]&gt; */&lt;/script&gt;\nFormat settings, CABAC                   : Yes\nFormat settings, ReFrames                : 3 frames\nCodec ID                                 : avc1\nCodec ID/Info                            : Advanced Video Coding\nDuration                                 : 3mn 10s\nBit rate                                 : 1 993 Kbps\nWidth                                    : 1 920 pixels\nHeight                                   : 1 080 pixels\nDisplay aspect ratio                     : 16:9\nFrame rate mode                          : Constant\nFrame rate                               : 25.000 fps\nColor space                              : YUV\nChroma subsampling                       : 4:2:0\nBit depth                                : 8 bits\nScan type                                : Progressive\nBits/(Pixel*Frame)                       : 0.038\nStream size                              : 45.3 MiB (94%)\nEncoded date                             : UTC 2013-12-03 02:59:25\nTagged date                              : UTC 2013-12-03 02:59:25\n\nAudio\nID                                       : 2\nFormat                                   : AAC\nFormat/Info                              : Advanced Audio Codec\nFormat profile                           : LC\nCodec ID                                 : 40\nDuration                                 : 3mn 10s\nBit rate mode                            : Variable\nBit rate                                 : 126 Kbps\nChannel(s)                               : 2 channels\nChannel positions                        : Front: L R\nSampling rate                            : 44.1 KHz\nCompression mode                         : Lossy\nDelay relative to video                  : 40ms\nStream size                              : 2.86 MiB (6%)\nEncoded date                             : UTC 2013-12-03 02:58:22\nTagged date                              : UTC 2013-12-03 02:58:22\n\nShared By Sbyky\n","torrent":{"xt":"urn:btih:9cae879c99f6eb5010c12a259e263719c873e1d8","amp;dn":"Akcent+Ft.+Sandra+N.+-+Boracay+%5BMusic+Video%5D+1080p+%5BSbyky%5D","amp;tr":["udp%3A%2F%2Ftracker.openbittorrent.com%3A80","udp%3A%2F%2Fopen.demonii.com%3A1337","udp%3A%2F%2Ftracker.coppersurfer.tk%3A6969","udp%3A%2F%2Fexodus.desync.com%3A6969"],"infoHash":"9cae879c99f6eb5010c12a259e263719c873e1d8","infoHashBuffer":{"type":"Buffer","data":[156,174,135,156,153,246,235,80,16,193,42,37,158,38,55,25,200,115,225,216]},"announce":[],"urlList":[]}}